# xmcd CD database file
#
# Track frame offsets:
#	150
#	27300
#	52425
#	79576
#
# Disc length: 1394 seconds
#
# Revision: 3
# Processed by: cddbd v1.5.1PL2 Copyright (c) Steve Scherf et al.
# Submitted via: CDex 1.51
#
DISCID=2f057004
DTITLE=m-flo loves YOSHIKA - let go
DYEAR=2004
DGENRE=Blues
TTITLE0=let go
TTITLE1=The Other Side of Love
TTITLE2=let go -instrumental-
TTITLE3=The Other Side of Love -instrumental-
EXTD=YEAR: 2004
EXTT0=
EXTT1=
EXTT2=
EXTT3=
PLAYORDER=
